<svg id="图层_1" data-name="图层 1" xmlns="http://www.w3.org/2000/svg" viewBox="0 0 110 28"><defs><style>.cls-1{fill:#202020;}</style></defs><title>logo-main</title><g id="_编组_" data-name="&lt;编组&gt;"><path class="cls-1" d="M8,12.64A1.75,1.75,0,1,0,9.7,14.38,1.73,1.73,0,0,0,8,12.64"/><path class="cls-1" d="M25.19,15.28c-1.6-.15-4.16-.92-8.34-4.85C14,7.49,11,6.19,8,6.55a8.69,8.69,0,0,0-2.45.69,7.9,7.9,0,0,0-1.26.85,11.31,11.31,0,0,1,20.92,7.19m-11.25,10A11.35,11.35,0,0,1,2.61,14c0-.31,0-.61.05-.91.69-1,2.76-3.56,5.65-3.9,2.14-.27,4.39.79,6.71,3.15,4.53,4.26,7.55,5.3,9.55,5.56a11.34,11.34,0,0,1-10.63,7.43M13.94,0A13.94,13.94,0,1,0,27.89,14,13.94,13.94,0,0,0,13.94,0"/><path class="cls-1" d="M48.13,15.19h-8V2.62h8a6.17,6.17,0,0,1,6.16,6.3,6.15,6.15,0,0,1-6.16,6.27M48.13,0H38.85a1.31,1.31,0,0,0-1.31,1.31V26.6a1.31,1.31,0,1,0,2.62,0V17.81h8a8.69,8.69,0,0,0,6.21-2.58A8.91,8.91,0,0,0,56.9,8.92,8.93,8.93,0,0,0,54.34,2.6,8.67,8.67,0,0,0,48.13,0"/><path class="cls-1" d="M63.42,10.13a1.3,1.3,0,0,0-1.3,1.31V26.6a1.31,1.31,0,0,0,2.61,0V11.44a1.3,1.3,0,0,0-1.31-1.31"/><path class="cls-1" d="M101.09,25.29a6.3,6.3,0,1,1,6.3-6.3,6.31,6.31,0,0,1-6.3,6.3m0-15.21A8.92,8.92,0,1,0,110,19a8.92,8.92,0,0,0-8.91-8.91"/><path class="cls-1" d="M80.21,12.7a6.25,6.25,0,0,1,4.45,1.84,1.31,1.31,0,1,0,1.85-1.85,8.92,8.92,0,1,0,0,12.61,1.31,1.31,0,1,0-1.85-1.85A6.3,6.3,0,1,1,80.21,12.7"/></g></svg>